<?xml version="1.0" encoding="utf-8"?>
<svg xmlns="http://www.w3.org/2000/svg" xmlns:xlink="http://www.w3.org/1999/xlink" version="1.1" style="width:0;height:0;position:absolute;overflow:hidden;">
  <defs>
<symbol viewBox="0 0 1024 998" aria-labelledby="dpsi-ant-github-title" id="si-ant-github"><title id="dpsi-ant-github-title">icon github</title><path d="M0 512q0 166 95.5 298.5T343 996q6 1 10 1t6.5-1.5 4-3 2-5 .5-4.5V882q-37 4-66-.5t-45.5-14-29-23.5-17-25.5-9-24T194 780q-9-15-27-27.5t-27-20-2-14.5q50-26 113 66 34 51 119 30 10-41 40-70-116-21-172-86t-56-158q0-87 55-151-22-65 6-137 29-2 65 11.5t50.5 23T384 264q57-16 128.5-16T642 264q13-9 29-19t49-21.5 61-9.5q27 71 6 135 56 64 56 152 0 92-56.5 157.5T615 744q43 43 43 104v129q0 1 1 3 0 6 .5 9t4.5 6 11 3q154-52 251.5-185.5T1024 512q0-104-40.5-199t-109-163.5T711 40.5 512 0 313 40.5t-163.5 109T40.5 313 0 512z"/></symbol>
<symbol viewBox="0 0 30 29.300003051757812" aria-labelledby="brsi-evil-sc-github-title" id="si-evil-sc-github"><title id="brsi-evil-sc-github-title">icon sc-github</title><path fill-rule="evenodd" d="M15 0C6.7 0 0 6.7 0 15c0 6.6 4.3 12.2 10.3 14.2.8.1 1-.3 1-.7v-2.6c-4.2.9-5.1-2-5.1-2-.7-1.7-1.7-2.2-1.7-2.2-1.4-.9.1-.9.1-.9 1.5.1 2.3 1.5 2.3 1.5 1.3 2.3 3.5 1.6 4.4 1.2.1-1 .5-1.6 1-2-3.3-.4-6.8-1.7-6.8-7.4 0-1.6.6-3 1.5-4-.2-.4-.7-1.9.1-4 0 0 1.3-.4 4.1 1.5 1.2-.3 2.5-.5 3.8-.5 1.3 0 2.6.2 3.8.5 2.9-1.9 4.1-1.5 4.1-1.5.8 2.1.3 3.6.1 4 1 1 1.5 2.4 1.5 4 0 5.8-3.5 7-6.8 7.4.5.5 1 1.4 1 2.8v4.1c0 .4.3.9 1 .7 6-2 10.2-7.6 10.2-14.2C30 6.7 23.3 0 15 0z" clip-rule="evenodd"/></symbol>
  </defs>
</svg>
