<?xml version="1.0" standalone="no"?>
<!DOCTYPE svg PUBLIC "-//W3C//DTD SVG 20010904//EN"
 "http://www.w3.org/TR/2001/REC-SVG-20010904/DTD/svg10.dtd">
<svg version="1.0" xmlns="http://www.w3.org/2000/svg"
 width="135.000000pt" height="135.000000pt" viewBox="0 0 135.000000 135.000000"
 preserveAspectRatio="xMidYMid meet">

<rect width="100%" height="100%" fill="white" rx="20" />
<g transform="translate(0.000000,135.000000) scale(0.100000,-0.100000)"
fill="#000000" stroke="none">
<path d="M1094 1157 c-34 -35 -88 -104 -121 -153 -55 -83 -66 -94 -173 -166
-84 -57 -117 -74 -122 -64 -4 7 -15 87 -24 177 -26 244 -48 251 -109 34 -67
-234 -167 -389 -339 -528 -55 -44 -70 -52 -121 -59 -30 -5 -31 -36 -2 -49 22
-10 33 -7 82 21 31 18 96 70 145 117 l89 84 149 -148 c144 -143 205 -220 227
-286 7 -22 16 -32 30 -32 28 0 31 35 7 82 -11 21 -23 58 -27 83 -4 25 -10 50
-14 55 -16 27 -32 88 -41 165 -6 47 -17 114 -25 150 -12 59 -12 66 3 78 29 22
182 123 182 120 0 -2 -11 -39 -25 -83 -28 -91 -32 -157 -10 -175 20 -17 80 4
125 44 69 62 107 79 161 74 39 -4 52 -2 56 10 11 26 -27 44 -83 40 -53 -5
-135 -49 -178 -97 -44 -49 -57 -17 -30 72 49 160 61 180 134 240 83 69 132
127 155 185 14 34 15 45 5 57 -22 26 -43 17 -106 -48z m16 -61 c0 -2 -8 -10
-17 -17 -16 -13 -17 -12 -4 4 13 16 21 21 21 13z m-495 -244 c9 -62 13 -117
10 -122 -13 -21 -165 -76 -165 -60 0 5 4 12 10 15 15 9 88 171 107 238 9 33
18 57 19 51 2 -5 10 -60 19 -122z m38 -194 c3 -13 11 -61 17 -108 12 -87 23
-146 36 -190 5 -18 -20 1 -92 71 -54 53 -118 114 -142 134 l-42 39 72 21 c40
12 87 29 103 38 39 21 42 21 48 -5z"/>
</g>
</svg>
